<?xml version="1.0" encoding="iso-8859-1"?>
<!-- Generator: Adobe Illustrator 19.0.0, SVG Export Plug-In . SVG Version: 6.00 Build 0)  -->
<svg version="1.1" id="Layer_1" xmlns="http://www.w3.org/2000/svg" xmlns:xlink="http://www.w3.org/1999/xlink" x="0px" y="0px"
	 viewBox="0 0 512 512" style="enable-background:new 0 0 512 512;" xml:space="preserve">
<g>
	<g>
		<g>
			<path d="M136.525,102.4c0.657,0,1.323-0.077,1.988-0.23c5.888-1.408,13.278-7.765,14.882-14.985
				c1.024-4.599-1.835-9.293-6.434-10.317c-4.617-1.007-9.122,1.741-10.146,6.34c-0.299,0.708-1.673,2.039-2.449,2.406
				c-4.471,1.169-7.211,5.709-6.135,10.232C129.169,99.763,132.668,102.4,136.525,102.4z"/>
			<path d="M136.533,136.533c28.237,0,51.2-22.963,51.2-51.2c0-46.234-43.998-81.963-45.875-83.465
				c-3.115-2.492-7.535-2.492-10.658,0C129.331,3.371,85.333,39.1,85.333,85.333C85.333,113.57,108.297,136.533,136.533,136.533z
				 M136.533,19.985c10.786,10.3,34.133,36.002,34.133,65.348c0,18.825-15.309,34.133-34.133,34.133S102.4,104.158,102.4,85.333
				C102.4,55.987,125.747,30.285,136.533,19.985z"/>
			<path d="M344.277,343.424c-0.819,0.708-20.011,17.707-20.011,49.109V435.2c0,4.71,3.823,8.533,8.533,8.533
				c4.71,0,8.533-3.823,8.533-8.533v-42.667c0-23.33,13.594-35.738,14.566-36.634l59.733-59.733
				c3.388-3.388,7.612-5.35,11.895-5.521c4.122-0.162,8.09,1.374,11.204,4.488c3.115,3.115,4.668,6.989,4.489,11.204
				c-0.171,4.284-2.133,8.508-5.521,11.895L395.034,360.9c-3.337,3.337-3.337,8.73,0,12.066c3.336,3.337,8.73,3.337,12.066,0
				l42.667-42.658c6.426-6.426,10.163-14.694,10.513-23.279c0.367-8.969-3.004-17.485-9.481-23.962
				c-6.485-6.477-14.959-9.822-23.97-9.481c-8.585,0.358-16.845,4.087-23.262,10.513L344.277,343.424z"/>
			<path d="M375.467,136.533c28.237,0,51.2-22.963,51.2-51.2c0-46.234-43.998-81.963-45.875-83.465
				c-3.115-2.492-7.535-2.492-10.658,0c-1.869,1.502-45.867,37.231-45.867,83.465C324.267,113.57,347.23,136.533,375.467,136.533z
				 M375.467,19.985c10.786,10.3,34.133,36.002,34.133,65.348c0,18.825-15.309,34.133-34.133,34.133
				c-18.825,0-34.133-15.309-34.133-34.133C341.333,55.987,364.681,30.285,375.467,19.985z"/>
			<path d="M375.458,102.4c0.657,0,1.323-0.077,1.988-0.23c5.888-1.408,13.278-7.765,14.882-14.985
				c1.024-4.599-1.835-9.293-6.434-10.317c-4.591-1.007-9.122,1.741-10.146,6.34c-0.299,0.708-1.673,2.039-2.449,2.406
				c-4.471,1.169-7.211,5.709-6.135,10.232C368.102,99.763,371.601,102.4,375.458,102.4z"/>
			<path d="M452.267,460.8H315.733c-4.71,0-8.533,3.823-8.533,8.533v34.133c0,4.71,3.823,8.533,8.533,8.533s8.533-3.823,8.533-8.533
				v-25.6h119.467v25.6c0,4.71,3.823,8.533,8.533,8.533c4.71,0,8.533-3.823,8.533-8.533v-34.133
				C460.8,464.623,456.977,460.8,452.267,460.8z"/>
			<path d="M341.333,204.8c0-62.839-76.416-131.49-79.659-134.383c-3.234-2.867-8.115-2.867-11.349,0
				c-3.243,2.893-79.659,71.543-79.659,134.383c0,47.053,38.281,85.333,85.333,85.333S341.333,251.853,341.333,204.8z M256,273.067
				c-37.641,0-68.267-30.626-68.267-68.267c0-46.037,50.961-99.465,68.267-116.284c17.314,16.802,68.267,70.178,68.267,116.284
				C324.267,242.441,293.641,273.067,256,273.067z"/>
			<path d="M51.721,307.029c0.35,8.585,4.087,16.853,10.513,23.27l42.667,42.667c3.337,3.337,8.73,3.337,12.066,0
				c3.336-3.337,3.336-8.73,0-12.066L74.3,318.225c-3.388-3.379-5.35-7.603-5.521-11.887c-0.179-4.215,1.374-8.09,4.489-11.204
				c3.115-3.115,6.997-4.642,11.204-4.488c4.284,0.171,8.508,2.133,11.895,5.521l60.126,60.109
				c0.58,0.521,14.174,12.928,14.174,36.258V435.2c0,4.71,3.823,8.533,8.533,8.533s8.533-3.823,8.533-8.533v-42.667
				c0-31.403-19.191-48.401-19.567-48.7L108.433,284.1c-6.417-6.426-14.677-10.155-23.262-10.513
				c-9.02-0.341-17.485,3.004-23.97,9.481C54.724,289.545,51.354,298.061,51.721,307.029z"/>
			<path d="M477.867,153.6c-18.825,0-34.133,15.309-34.133,34.133v67.558c0,4.71,3.823,8.533,8.533,8.533
				c4.71,0,8.533-3.823,8.533-8.533v-67.558c0-9.412,7.654-17.067,17.067-17.067s17.067,7.654,17.067,17.067v128
				c0,23.637-13.517,35.686-14.566,36.634L412.1,420.634c-3.337,3.337-3.337,8.73,0,12.066c1.664,1.664,3.849,2.5,6.033,2.5
				c2.185,0,4.369-0.836,6.033-2.5l67.738-67.78c0.819-0.691,20.096-17.323,20.096-49.186v-128
				C512,168.909,496.691,153.6,477.867,153.6z"/>
			<path d="M93.867,435.2c2.185,0,4.369-0.836,6.033-2.5c3.337-3.337,3.337-8.73,0-12.066l-68.745-68.71
				c-0.58-0.503-14.089-12.553-14.089-36.19v-128c0-9.412,7.654-17.067,17.067-17.067c9.412,0,17.067,7.654,17.067,17.067v67.558
				c0,4.71,3.823,8.533,8.533,8.533s8.533-3.823,8.533-8.533v-67.558c0-18.825-15.309-34.133-34.133-34.133
				C15.309,153.6,0,168.909,0,187.733v128c0,31.863,19.277,48.495,19.567,48.7L87.834,432.7
				C89.498,434.364,91.682,435.2,93.867,435.2z"/>
			<path d="M196.267,460.8H59.733c-4.71,0-8.533,3.823-8.533,8.533v34.133c0,4.71,3.823,8.533,8.533,8.533s8.533-3.823,8.533-8.533
				v-25.6h119.467v25.6c0,4.71,3.823,8.533,8.533,8.533s8.533-3.823,8.533-8.533v-34.133C204.8,464.623,200.977,460.8,196.267,460.8
				z"/>
			<path d="M298.667,196.267c-4.71,0-8.533,3.823-8.533,8.533c0,7.535-2.406,14.677-6.946,20.651
				c-2.859,3.746-2.133,9.105,1.621,11.955c1.545,1.178,3.362,1.741,5.154,1.741c2.577,0,5.129-1.152,6.801-3.362
				c6.827-8.969,10.436-19.678,10.436-30.985C307.2,200.09,303.377,196.267,298.667,196.267z"/>
		</g>
	</g>
</g>
<g>
</g>
<g>
</g>
<g>
</g>
<g>
</g>
<g>
</g>
<g>
</g>
<g>
</g>
<g>
</g>
<g>
</g>
<g>
</g>
<g>
</g>
<g>
</g>
<g>
</g>
<g>
</g>
<g>
</g>
</svg>
