<?xml version="1.0" encoding="iso-8859-1"?>
<!-- Generator: Adobe Illustrator 19.0.0, SVG Export Plug-In . SVG Version: 6.00 Build 0)  -->
<svg version="1.1" id="Layer_1" xmlns="http://www.w3.org/2000/svg" xmlns:xlink="http://www.w3.org/1999/xlink" x="0px" y="0px"
	 viewBox="0 0 504.825 504.825" style="enable-background:new 0 0 504.825 504.825;" xml:space="preserve">
<g transform="translate(1 1)">
	<path style="fill:#50DD8E;" d="M456.6,151.57c0,0,10.2,16.2,1.7,30.7s-27.3,13.7-27.3,13.7s-10.2-16.2-1.7-30.7
		C437.9,150.77,456.6,151.57,456.6,151.57z M473.7,208.77c17.1,0,25.6,17.1,25.6,17.1s-8.5,17.1-25.6,17.1s-25.6-17.1-25.6-17.1
		S456.6,208.77,473.7,208.77z M454.9,272.77c7.7,15.4-5.1,30.7-5.1,30.7s-18.8-0.9-26.5-16.2c-7.7-15.4,4.3-30.7,4.3-30.7
		S447.2,257.37,454.9,272.77z"/>
	<path style="fill:#ECF4F7;" d="M336.3,157.57c-34.1,0-45.2,13.7-51.2,34.1c0,0-4.8,15.3-8.2,32.6l-67.7-186.2
		c0,0-42.7,17.1-42.7,76.8l110.2,110.2c0,0.2-0.1,0.5-0.1,0.7l-111-110.9L54.7,3.97c0,0-34.1,51.2-34.1,136.5
		c0,119.5,170.7,221.9,170.7,221.9H3.5c0,12.8,1.7,23.9,5.1,34.1c7.7,23.9,21.3,42.7,37.5,57.2c17.9,15.4,39.3,25.6,58,32.4
		c29,10.2,52.9,12.8,52.9,12.8l34.1-68.3c119.5,0,153.6-110.9,153.6-204.8H413C413.1,225.87,387.5,157.57,336.3,157.57z"/>
</g>
<g>
	<path style="fill:#51565F;" d="M504.3,224.87c-0.4-0.8-10-19.6-29.6-19.6c-15.8,0-25.1,12.1-28.3,17.3h-23.7l11.8-21.1
		c5.9-0.3,20.9-2.5,28.7-15.8c9.8-16.7-1.3-34.6-1.8-35.4c-0.8-1.2-2.1-2-3.6-2.1c0,0-0.3,0-0.8,0c-3.5,0-21.7,0.8-30.6,15.9
		c-8.2,14-1.7,28.9,0.9,33.8l-11.5,19.7l-0.4,0.8c-8.7-18.5-34.5-64.2-78.1-64.2c-39.2,0-49.9,18-55.5,37.3c-0.1,0.4-2.4,7.8-5,18
		l-1.8,7.4c-2.3-2.2-4.5-4.3-6.8-6.5c-4.9-4.7-9.6-9.6-14.4-14.3c-14.5-14.5-29.1-29.1-43.6-43.6c-12.5-12.5-25-25-37.5-37.5
		c-0.2-0.2-0.4-0.4-0.6-0.6l0,0c0.3-22.6,7-41.3,19.8-55.6c6-6.6,12-10.8,15.8-13l47.1,129.1c2,5.5,10.7,2.9,8.3-3.4l-48.7-133.9
		c-0.4-1.1-1.3-2.1-2.4-2.6c-1.1-0.5-2.4-0.5-3.5-0.1c-0.5,0.2-11.8,4.8-23,17.2c-9.2,10.1-20,27.4-22.1,54.2L58.9,1.77
		c-1-1-2.3-1.4-3.6-1.3c-1.3,0.1-2.6,0.9-3.3,2c-1.4,2.1-34.9,53.3-34.9,139c0,28.1,9.2,57.5,27.3,87.4
		c14.4,23.7,34.4,47.8,59.4,71.6c28.4,27,57.1,47.6,73.2,58.4H4.5c-2.5,0-4.5,2-4.5,4.5c0,13.1,1.8,24.8,5.3,35.5
		c7.3,22.7,20.4,42.6,38.9,59.2c15.6,13.4,35.6,24.6,59.5,33.3c29.2,10.3,52.9,12.9,53.9,13c0.2,0,0.3,0,0.5,0c1.7,0,3.3-1,4-2.5
		l32.9-65.8c28-0.4,52.9-6.9,73.9-19.4c19.5-11.6,36-28.4,48.8-50c25.9-43.6,32.2-96.9,32.6-135.4h60.8l14,25.9
		c-0.6,0.7-13.7,15.4-4.8,33.1c8.8,17.5,29.4,18.7,30.3,18.7c0.1,0,0.1,0,0.2,0c1.3,0,2.6-0.6,3.5-1.6c0.6-0.7,14.6-17.8,5.7-35.6
		c-6.1-12.1-17.7-17.4-25.3-18.9l-12-21.8h23.7c3.2,5.2,12.5,17.3,28.3,17.3c19.6,0,29.2-18.8,29.6-19.6
		C505,227.57,505,226.07,504.3,224.87z M434.2,168.57c5.4-9.2,15.9-11,20.8-11.4c2.1,4.4,5.9,14.7,0.5,23.9s-15.9,11-20.8,11.4
		C432.6,187.97,428.8,177.77,434.2,168.57z M345.8,222.37c-2.5,0-4.5,2-4.5,4.5c0,53.2-11.1,101.3-31.4,135.3
		c-25.6,43.1-65.3,65-117.7,65c-1.7,0-3.3,1-4,2.5l-32.7,65.4c-6.1-0.9-38-8.6-38-8.6s0.1-0.2,0.2-0.4l28.4-37.4
		c0.9-0.9,0.9-1.7,0.9-2.6c0-1.7-0.9-2.6-1.7-3.4c-1.7-1.7-4.3-0.9-6,0.9l-30.6,40c-0.7-0.2-1.3-0.5-2-0.7
		c-17.8-6.5-33.3-14.4-46.3-23.6l58.4-26.8c1.7-0.9,2.6-2.6,2.6-4.3c0-0.9,0-0.9,0-1.7c-1.7-1.7-3.4-2.6-6-1.7l-62.8,28.6
		c-0.8-0.7-1.6-1.4-2.4-2c-14.3-12.8-25.1-27.7-32.2-44.4h90.7c2.6,0,4.3-1.7,4.3-4.3s-1.7-4.3-4.3-4.3h-94
		c-0.3-0.8-0.5-1.5-0.8-2.3c-2.9-8.6-4.5-17.9-4.8-28.2h183.2c2,0,3.8-1.3,4.3-3.3c0.5-1.9-0.3-4-2-5.1
		c-0.4-0.3-42.8-25.9-84.7-65.7c-36.9-35-80.6-88.3-83.6-146c0,0,0,0-0.1-0.1c0-0.6,0-1.1,0-1.7l120.3,120.3c1.7,1.7,4.3,1.7,6,0
		c0.9-0.9,0.9-1.7,0.9-3.4c0-1.7,0-2.6-0.9-3.4L26.1,133.27c0-0.3,0-0.6,0.1-1l0,0c0-0.3,0-0.6,0-0.9c0-0.4,0.1-0.9,0.1-1.3l0,0
		c0.4-11,1.4-21.5,2.8-31.2l0.3-1.7L155,222.67c1.7,1.7,4.3,1.7,6,0c0.9-0.9,0.9-1.7,0.9-3.4s0-2.6-0.9-3.4L31.2,86.17
		c2.1-11.1,4.6-21.2,7.4-30.1l0.4-1.2l124.7,124.7c1.7,1.7,4.3,1.7,6,0c0.9-0.9,0.9-1.7,0.9-3.4s0-2.6-0.9-3.4L42.1,45.17
		c5.6-15.8,11.2-27,14.5-32.9l217.8,217.8c1,1,2.3,1.4,3.7,1.3c0.1,0,0.2,0,0.4,0l0,0c2.5,0,4.5-2,4.5-4.5c0-0.7-0.2-1.3-0.4-1.9
		c3.3-16.3,7.8-30.7,7.9-31c5.6-19.1,15.3-30.9,46.9-30.9c38.7,0,62.4,43,70,59.3L345.8,222.37L345.8,222.37z M432.6,261.57
		c4.9,1.2,15.8,5.1,19.8,15.3c3.9,10.1-2.3,19.7-5.4,23.5c-4.6-1.2-15-5-19-15.2C424,275.17,429.7,265.57,432.6,261.57z
		 M474.7,239.37c-10.8,0-17.7-8.6-20.4-12.6c2.6-4,9.5-12.6,20.4-12.6c10.8,0,17.7,8.6,20.4,12.6
		C492.4,230.87,485.5,239.37,474.7,239.37z"/>
	<path style="fill:#51565F;" d="M333.9,179.87c-5.1,0-8.5,3.4-8.5,8.5s3.4,8.5,8.5,8.5s8.5-3.4,8.5-8.5S339,179.87,333.9,179.87z"/>
</g>
<g>
</g>
<g>
</g>
<g>
</g>
<g>
</g>
<g>
</g>
<g>
</g>
<g>
</g>
<g>
</g>
<g>
</g>
<g>
</g>
<g>
</g>
<g>
</g>
<g>
</g>
<g>
</g>
<g>
</g>
</svg>
